<svg aria-hidden="true" style="position: absolute; width: 0; height: 0; overflow: hidden;" version="1.1" xmlns="http://www.w3.org/2000/svg" xmlns:xlink="http://www.w3.org/1999/xlink">
<defs>
<symbol id="icon-favicon" viewBox="0 0 43 32">
<path d="M5.333 5.333c-1.414 0-2.771 0.562-3.771 1.562s-1.562 2.357-1.562 3.771v16c0 1.414 0.562 2.771 1.562 3.771s2.357 1.562 3.771 1.562h32c1.414 0 2.771-0.562 3.771-1.562s1.562-2.357 1.562-3.771v-16c0-1.414-0.562-2.771-1.562-3.771s-2.357-1.562-3.771-1.562h-3.125c-1.414-0-2.771-0.562-3.771-1.563l-2.208-2.208c-1-1-2.356-1.562-3.771-1.563h-6.251c-1.414 0-2.771 0.562-3.771 1.563l-2.208 2.208c-1 1-2.356 1.562-3.771 1.563h-3.125zM6.667 10.667c-0.354 0-0.693-0.14-0.943-0.391s-0.391-0.589-0.391-0.943c0-0.354 0.14-0.693 0.391-0.943s0.589-0.391 0.943-0.391c0.354 0 0.693 0.14 0.943 0.391s0.391 0.589 0.391 0.943c0 0.354-0.14 0.693-0.391 0.943s-0.589 0.391-0.943 0.391zM30.667 17.333c0 2.475-0.983 4.849-2.734 6.6s-4.124 2.734-6.6 2.734c-2.475 0-4.849-0.983-6.6-2.734s-2.734-4.124-2.734-6.6c0-2.475 0.983-4.849 2.734-6.6s4.124-2.734 6.6-2.734c2.475 0 4.849 0.983 6.6 2.734s2.734 4.124 2.734 6.6z"></path>
</symbol>
</defs>
</svg>